# xmcd
#
# Track frame offsets:
#	150
#	17479
#	46142
#	66114
#	85570
#	106961
#	121149
#	141214
#	176365
#	194395
#	221098
#	238390
#
# Disc length: 3454 seconds
#
# Revision: 1
# Processed by: cddbd v1.5.1PL0 Copyright (c) Steve Scherf et al.
# Submitted via: CDex 1.50Beta5
#
DISCID=9f0d7c0c
DTITLE=さだまさし - 特集さだまさし 雨の章
DYEAR=2003
DGENRE=
TTITLE0=驟雨
TTITLE1=雨の夜と淋しい午後は
TTITLE2=Once Upon a Time
TTITLE3=桐の花
TTITLE4=加速度
TTITLE5=胡桃の日(ライブバージョン)
TTITLE6=さよならコンサート(ライブバージョン)
TTITLE7=みるくは風になった
TTITLE8=HAPPY BIRTHDAY
TTITLE9=本当は泣きたいのに
TTITLE10=破
TTITLE11=雨やどり(ライブバージョン)
EXTD=
EXTT0=
EXTT1=
EXTT2=
EXTT3=
EXTT4=
EXTT5=
EXTT6=
EXTT7=
EXTT8=
EXTT9=
EXTT10=
EXTT11=
PLAYORDER=
